<svg xmlns="http://www.w3.org/2000/svg" width="12" height="12" viewBox="0 0 12 12" fill="none">
  <path d="M 8 -1 C 7.448 -1 7 -0.552 7 0 C 7 0.552 7.448 1 8 1 L 8 0 L 8 -1 Z M 12 0 L 13 0 L 13 -1 L 12 -1 L 12 0 Z M 11 4 C 11 4.552 11.448 5 12 5 C 12.552 5 13 4.552 13 4 L 12 4 L 11 4 Z M 3.96 6.626 C 3.569 7.017 3.569 7.65 3.96 8.04 C 4.35 8.431 4.983 8.431 5.374 8.04 L 4.667 7.333 L 3.96 6.626 Z M 11 6.667 C 11 6.114 10.552 5.667 10 5.667 C 9.448 5.667 9 6.114 9 6.667 L 10 6.667 L 11 6.667 Z M 0 10.667 L -1 10.667 L 0 10.667 Z M 1.333 2 L 1.333 1 L 1.333 2 Z M 5.333 3 C 5.886 3 6.333 2.552 6.333 2 C 6.333 1.448 5.886 1 5.333 1 L 5.333 2 L 5.333 3 Z M 8 0 L 8 1 L 12 1 L 12 0 L 12 -1 L 8 -1 L 8 0 Z M 12 0 L 11 0 L 11 4 L 12 4 L 13 4 L 13 0 L 12 0 Z M 12 0 L 11.293 -0.707 L 3.96 6.626 L 4.667 7.333 L 5.374 8.04 L 12.707 0.707 L 12 0 Z M 10 6.667 L 9 6.667 L 9 10.667 L 10 10.667 L 11 10.667 L 11 6.667 L 10 6.667 Z M 10 10.667 L 9 10.667 C 9 10.755 8.965 10.84 8.902 10.902 L 9.609 11.609 L 10.317 12.317 C 10.754 11.879 11 11.286 11 10.667 L 10 10.667 Z M 9.609 11.609 L 8.902 10.902 C 8.84 10.965 8.755 11 8.667 11 L 8.667 12 L 8.667 13 C 9.286 13 9.879 12.754 10.317 12.317 L 9.609 11.609 Z M 8.667 12 L 8.667 11 L 1.333 11 L 1.333 12 L 1.333 13 L 8.667 13 L 8.667 12 Z M 1.333 12 L 1.333 11 C 1.245 11 1.16 10.965 1.098 10.902 L 0.391 11.609 L -0.317 12.317 C 0.121 12.754 0.714 13 1.333 13 L 1.333 12 Z M 0.391 11.609 L 1.098 10.902 C 1.035 10.84 1 10.755 1 10.667 L 0 10.667 L -1 10.667 C -1 11.286 -0.754 11.879 -0.317 12.317 L 0.391 11.609 Z M 0 10.667 L 1 10.667 L 1 3.333 L 0 3.333 L -1 3.333 L -1 10.667 L 0 10.667 Z M 0 3.333 L 1 3.333 C 1 3.245 1.035 3.16 1.098 3.098 L 0.391 2.391 L -0.317 1.683 C -0.754 2.121 -1 2.714 -1 3.333 L 0 3.333 Z M 0.391 2.391 L 1.098 3.098 C 1.16 3.035 1.245 3 1.333 3 L 1.333 2 L 1.333 1 C 0.714 1 0.121 1.246 -0.317 1.683 L 0.391 2.391 Z M 1.333 2 L 1.333 3 L 5.333 3 L 5.333 2 L 5.333 1 L 1.333 1 L 1.333 2 Z" fill="rgb(75,85,99)" fill-rule="nonzero"></path>
</svg>